# xmcd
#
# Track frame offsets: 
#        150
#        11787
#        24385
#        36175
#        47396
#        58386
#        68933
#        80261
#        93674
#        107610
#        117547
#        127724
#
# Disc length: 1842 seconds
#
# Revision: 0
# Processed by: cddbd v1.5.2PL0 Copyright (c) Steve Scherf et al.
# Submitted via: ExactAudioCopyFreeDBPlugin 1.0
#
DISCID=9a07300c
DTITLE=Tião Carreiro - Em Solo De Viola Caipira
DYEAR=1979
DGENRE=Sertanejo
TTITLE0=Malandrinho
TTITLE1=Cavalo Zaino
TTITLE2=Seleção De Pagodes Vol. 1
TTITLE3=Viola Barulhenta
TTITLE4=Casinha Branca Da Serra
TTITLE5=Malandro Da Barra Funda
TTITLE6=Cidade Morena
TTITLE7=Vou Tomá Um Pingão
TTITLE8=Seleção De Pagodes Vol. 2
TTITLE9=Faz Um Ano (Hace Un Año)
TTITLE10=O Mineiro No Pagode
TTITLE11=Seleção De Polcas
EXTD=
EXTT0=
EXTT1=
EXTT2=
EXTT3=
EXTT4=
EXTT5=
EXTT6=
EXTT7=
EXTT8=
EXTT9=
EXTT10=
EXTT11=
PLAYORDER=
